[img]http://img686.imageshack.us/img686/5682/streetdance3d0.jpg[/img]
[code]
Link                   : http://www.imdb.com/title/tt1447972/
Format                           : AVI
Format/Info                      : Audio Video Interleave
File size                        : 2.02 GiB
Duration                         : 1h 38mn
Overall bit rate                 : 2 934 Kbps

Video
Format                           : MPEG-4 Visual
Format settings, BVOP            : Yes
Format settings, QPel            : No
Format settings, GMC             : No warppoints
Format settings, Matrix          : Default (H.263)
Muxing mode                      : Packed bitstream
Codec ID                         : DX50
Codec ID/Hint                    : DivX 5
Duration                         : 1h 38mn
Bit rate                         : 2 796 Kbps
Width                            : 704 pixels
Height                           : 480 pixels
Display aspect ratio             : 4.513
Frame rate                       : 23.976 fps
Resolution                       : 24 bits
Colorimetry                      : 4:2:0
Scan type                        : Progressive
Bits/(Pixel*Frame)               : 0.345
Stream size                      : 1.92 GiB (95%)
Title                            : Video
Writing library                  : DivX 2991

Audio
Format                           : MPEG Audio
Format version                   : Version 1
Format profile                   : Layer 3
Codec ID                         : 55
Codec ID/Hint                    : MP3
Duration                         : 1h 38mn
Bit rate mode                    : Constant
Bit rate                         : 128 Kbps
Channel(s)                       : 2 channels
Sampling rate                    : 48.0 KHz
Resolution                       : 16 bits
Stream size                      : 90.1 MiB (4%)
Alignment                        : Split accross interleaves
Interleave, duration             : 42 ms (1.00 video frame)
Interleave, preload duration     : 500 ms
[/code]
Screens:
[img]http://img844.imageshack.us/img844/5700/37399034.jpg[/img]
[img]http://img844.imageshack.us/img844/2964/91156790.jpg[/img]
[img]http://img338.imageshack.us/img338/6954/63796104.jpg[/img]
[img]http://img26.imageshack.us/img26/7764/91714910.jpg[/img]
